<svg  width="44px" height="184" viewBox="0 0 184 184" fill="none" xmlns="http://www.w3.org/2000/svg" style="margin: 0px 10px;"><path d="M115.425 106.125l-.7-.3-1.2 3 .7.3c2 .8 4 1.7 5.9 2.7l.7.4 1.5-2.8-.7-.4c-2.1-1.1-4.1-2-6.2-2.9zM77.825 96.525h7.2c2.4 0 4.9.1 6.9.1 1 0 2 0 2.9.1h.6v-31h-17.6v30.8zm6.5-24.3h4.7v5.2h-4.7v-5.2zm0 9.6h4.7v5.2h-4.7v-5.2zM104.125 102.525c-1.1-.3-2.3-.5-3.4-.7l-.8-.2-.6 3.1.8.1c1 .2 2.1.4 3.2.7 1.1.3 2.1.5 3.1.8l.8.2.9-3.1-.8-.2c-1.1-.1-2.1-.4-3.2-.7zM76.925 101.225c-2.2.3-4.5.8-6.7 1.4l-.8.2.8 3.1.8-.2c2.1-.5 4.2-1 6.4-1.3l.8-.1-.5-3.2-.8.1zM71.925 90.925l.7.2v-3.3l-.5-.1c-.4-.1-.9-.1-1.4-.1-1.9 0-3.8.6-5.3 1.8l-.6.5 1.9 2.5.6-.5c.9-.7 2.1-1.1 3.3-1.1.5-.1.9 0 1.3.1zM65.225 96.225c0-.5.1-.9.2-1.4l.2-.8-3.1-.8-.2.8c-.2.7-.3 1.4-.3 2.1 0 1.9.6 3.8 1.8 5.3l.5.6 2.5-1.9-.5-.6c-.7-.9-1.1-2.1-1.1-3.3zM86.825 100.425h-2.2l.1 3.2h2.1c1.7 0 3.5.1 5.3.2l.8.1.2-3.2-.8-.1c-1.8-.1-3.7-.2-5.5-.2z" fill="#fff"></path><path d="M175.725 73.625l-66.2-66.2c-9.9-9.9-26-9.9-35.9 0l-66.2 66.2c-9.9 9.9-9.9 26 0 35.9l66.2 66.2c9.9 9.9 26 9.9 35.9 0l66.1-66.1c10-10 10-26.1.1-36zm-71.9 71c-3.5-3.4-7.8-5.2-12.8-5.2-5 0-9.2 1.9-12.8 5.4-1.5-1.4-2.9-2.8-4.3-4.3l-1.7-1.7c9-9.9 26.6-11.4 37.6-.3-2 2-4 4-6 6.1zm10.6-11.1c-13.1-12.2-34.4-12.2-47.6.3l-6-6c15.3-15.2 42.4-16.7 59.7-.3l-6.1 6zm18.2-17.2c-1.2-1-2.5-2-3.8-2.9l-.7-.5-1.8 2.6.7.5c1.2.8 2.3 1.6 3.4 2.5l-4.4 4.4c-10-9-21.9-13.8-35.6-13.6-4.4 0-10.3 1-11.5 1.2-1.7.3-5.2 1.2-9.9 3.6-3.8 1.9-8.4 4.7-13.5 9.1l-6-6s5.7-5.6 12.6-9.2h-.1c-3.1-2.8-5.1-6.8-5.1-11.3 0-8.4 6.8-15.3 15.3-15.3v-21.6h23v-12.8h33.9v59.2c3.7 2.3 6.3 4.6 7.8 6l-4.3 4.1z" fill="#fff"></path><path d="M175.725 73.625l-66.2-66.2c-9.9-9.9-26-9.9-35.9 0l-66.2 66.2c-9.9 9.9-9.9 26 0 35.9l66.2 66.2c9.9 9.9 26 9.9 35.9 0l66.1-66.1c10-10 10-26.1.1-36zm-71.9 71c-3.5-3.4-7.8-5.2-12.8-5.2-5 0-9.2 1.9-12.8 5.4-1.5-1.4-2.9-2.8-4.3-4.3l-1.7-1.7c9-9.9 26.6-11.4 37.6-.3-2 2-4 4-6 6.1zm10.6-11.1c-13.1-12.2-34.4-12.2-47.6.3l-6-6c15.3-15.2 42.4-16.7 59.7-.3l-6.1 6zm18.2-17.2c-1.2-1-2.5-2-3.8-2.9l-.7-.5-1.8 2.6.7.5c1.2.8 2.3 1.6 3.4 2.5l-4.4 4.4c-10-9-21.9-13.8-35.6-13.6-4.4 0-10.3 1-11.5 1.2-1.7.3-5.2 1.2-9.9 3.6-3.8 1.9-8.4 4.7-13.5 9.1l-6-6s5.7-5.6 12.6-9.2h-.1c-3.1-2.8-5.1-6.8-5.1-11.3 0-8.4 6.8-15.3 15.3-15.3v-21.6h23v-12.8h33.9v59.2c3.7 2.3 6.3 4.6 7.8 6l-4.3 4.1z" fill="#fff"></path><path d="M100.925 97.125l.5.1c7.4.9 14.4 3 20.8 6.1l.9.4v-50.9h-22.2v44.3zm7.9-36.3h6.3v6.9h-6.3v-6.9zm0 12.3h6.3v6.9h-6.3v-6.9zm0 12.2h6.3v6.9h-6.3v-6.9z" fill="#fff"></path></svg>